<?xml version="1.0" encoding="UTF-8" standalone="no"?>
<!-- Created with Inkscape (http://www.inkscape.org/) -->

<svg
   width="93.397713mm"
   height="90.67215mm"
   viewBox="0 0 120 116.49812"
   version="1.1"
   id="svg1"
   inkscape:version="1.3.2 (091e20e, 2023-11-25)"
   sodipodi:docname="featured.svg"
   xmlns:inkscape="http://www.inkscape.org/namespaces/inkscape"
   xmlns:sodipodi="http://sodipodi.sourceforge.net/DTD/sodipodi-0.dtd"
   xmlns="http://www.w3.org/2000/svg"
   xmlns:svg="http://www.w3.org/2000/svg">
  <sodipodi:namedview
     id="namedview1"
     pagecolor="#ffffff"
     bordercolor="#000000"
     borderopacity="0.25"
     inkscape:showpageshadow="2"
     inkscape:pageopacity="0.0"
     inkscape:pagecheckerboard="0"
     inkscape:deskcolor="#d1d1d1"
     inkscape:document-units="mm"
     inkscape:zoom="0.70933532"
     inkscape:cx="265.74174"
     inkscape:cy="396.14551"
     inkscape:window-width="1392"
     inkscape:window-height="1005"
     inkscape:window-x="632"
     inkscape:window-y="25"
     inkscape:window-maximized="0"
     inkscape:current-layer="layer1" />
  <defs
     id="defs1">
    <clipPath
       clipPathUnits="userSpaceOnUse"
       id="584230474868-clipPath1">
      <path
         d="M 0,0 H 4281 V 1207 H 0 Z"
         id="path1" />
    </clipPath>
    <clipPath
       clipPathUnits="userSpaceOnUse"
       id="clipPath2">
      <path
         d="M 0,0 H 4281 V 1207 H 0 Z"
         id="path2" />
    </clipPath>
    <clipPath
       clipPathUnits="userSpaceOnUse"
       id="clipPath3">
      <path
         d="M 0,0 H 4281 V 1207 H 0 Z"
         id="path3" />
    </clipPath>
    <clipPath
       clipPathUnits="userSpaceOnUse"
       id="clipPath4">
      <path
         d="M 0,0 H 4281 V 1207 H 0 Z"
         id="path4" />
    </clipPath>
    <clipPath
       clipPathUnits="userSpaceOnUse"
       id="clipPath5">
      <path
         d="M 0,0 H 4281 V 1207 H 0 Z"
         id="path5" />
    </clipPath>
    <clipPath
       clipPathUnits="userSpaceOnUse"
       id="clipPath6">
      <path
         d="M 0,0 H 4281 V 1207 H 0 Z"
         id="path6" />
    </clipPath>
    <clipPath
       clipPathUnits="userSpaceOnUse"
       id="clipPath7">
      <path
         d="M 0,0 H 4281 V 1207 H 0 Z"
         id="path7" />
    </clipPath>
    <clipPath
       clipPathUnits="userSpaceOnUse"
       id="clipPath8">
      <path
         d="M 0,0 H 4281 V 1207 H 0 Z"
         id="path8" />
    </clipPath>
    <clipPath
       clipPathUnits="userSpaceOnUse"
       id="clipPath9">
      <path
         d="M 0,0 H 4281 V 1207 H 0 Z"
         id="path9" />
    </clipPath>
    <clipPath
       clipPathUnits="userSpaceOnUse"
       id="clipPath10">
      <path
         d="M 0,0 H 4281 V 1207 H 0 Z"
         id="path10" />
    </clipPath>
    <clipPath
       clipPathUnits="userSpaceOnUse"
       id="clipPath11">
      <path
         d="M 0,0 H 4281 V 1207 H 0 Z"
         id="path11" />
    </clipPath>
    <clipPath
       clipPathUnits="userSpaceOnUse"
       id="clipPath12">
      <path
         d="M 0,0 H 4281 V 1207 H 0 Z"
         id="path12" />
    </clipPath>
    <clipPath
       clipPathUnits="userSpaceOnUse"
       id="clipPath13">
      <path
         d="M 0,0 H 4281 V 1207 H 0 Z"
         id="path13" />
    </clipPath>
    <clipPath
       clipPathUnits="userSpaceOnUse"
       id="clipPath14">
      <path
         d="M 0,0 H 4281 V 1207 H 0 Z"
         id="path14" />
    </clipPath>
    <clipPath
       clipPathUnits="userSpaceOnUse"
       id="clipPath15">
      <path
         d="M 0,0 H 4281 V 1207 H 0 Z"
         id="path15" />
    </clipPath>
    <clipPath
       clipPathUnits="userSpaceOnUse"
       id="clipPath16">
      <path
         d="M 0,0 H 4281 V 1207 H 0 Z"
         id="path16" />
    </clipPath>
    <clipPath
       clipPathUnits="userSpaceOnUse"
       id="clipPath17">
      <path
         d="M 0,0 H 4281 V 1207 H 0 Z"
         id="path17" />
    </clipPath>
    <clipPath
       clipPathUnits="userSpaceOnUse"
       id="clipPath18">
      <path
         d="M 0,0 H 4281 V 1207 H 0 Z"
         id="path18" />
    </clipPath>
    <clipPath
       clipPathUnits="userSpaceOnUse"
       id="clipPath19">
      <path
         d="M 0,0 H 4281 V 1207 H 0 Z"
         id="path19" />
    </clipPath>
    <clipPath
       clipPathUnits="userSpaceOnUse"
       id="clipPath20">
      <path
         d="M 0,0 H 4281 V 1207 H 0 Z"
         id="path20" />
    </clipPath>
    <clipPath
       clipPathUnits="userSpaceOnUse"
       id="clipPath21">
      <path
         d="M 0,0 H 4281 V 1207 H 0 Z"
         id="path21" />
    </clipPath>
    <clipPath
       clipPathUnits="userSpaceOnUse"
       id="clipPath22">
      <path
         d="M 0,0 H 4281 V 1207 H 0 Z"
         id="path22" />
    </clipPath>
    <clipPath
       clipPathUnits="userSpaceOnUse"
       id="clipPath23">
      <path
         d="M 0,0 H 4281 V 1207 H 0 Z"
         id="path23" />
    </clipPath>
    <clipPath
       clipPathUnits="userSpaceOnUse"
       id="clipPath24">
      <path
         d="M 0,0 H 4281 V 1207 H 0 Z"
         id="path24" />
    </clipPath>
    <clipPath
       clipPathUnits="userSpaceOnUse"
       id="clipPath25">
      <path
         d="M 0,0 H 4281 V 1207 H 0 Z"
         id="path25" />
    </clipPath>
    <clipPath
       clipPathUnits="userSpaceOnUse"
       id="clipPath26">
      <path
         d="M 0,0 H 4281 V 1207 H 0 Z"
         id="path26" />
    </clipPath>
    <clipPath
       clipPathUnits="userSpaceOnUse"
       id="clipPath27">
      <path
         d="M 0,0 H 4281 V 1207 H 0 Z"
         id="path27" />
    </clipPath>
    <clipPath
       clipPathUnits="userSpaceOnUse"
       id="clipPath28">
      <path
         d="M 0,0 H 4281 V 1207 H 0 Z"
         id="path28" />
    </clipPath>
    <clipPath
       clipPathUnits="userSpaceOnUse"
       id="clipPath29">
      <path
         d="M 0,0 H 4281 V 1207 H 0 Z"
         id="path29" />
    </clipPath>
    <clipPath
       clipPathUnits="userSpaceOnUse"
       id="clipPath30">
      <path
         d="M 0,0 H 4281 V 1207 H 0 Z"
         id="path30" />
    </clipPath>
    <clipPath
       clipPathUnits="userSpaceOnUse"
       id="clipPath31">
      <path
         d="M 0,0 H 4281 V 1207 H 0 Z"
         id="path31" />
    </clipPath>
    <clipPath
       clipPathUnits="userSpaceOnUse"
       id="clipPath32">
      <path
         d="M 0,0 H 4281 V 1207 H 0 Z"
         id="path32" />
    </clipPath>
    <clipPath
       clipPathUnits="userSpaceOnUse"
       id="clipPath33">
      <path
         d="M 0,0 H 4281 V 1207 H 0 Z"
         id="path33" />
    </clipPath>
    <clipPath
       clipPathUnits="userSpaceOnUse"
       id="clipPath34">
      <path
         d="M 0,0 H 4281 V 1207 H 0 Z"
         id="path34" />
    </clipPath>
    <clipPath
       clipPathUnits="userSpaceOnUse"
       id="clipPath35">
      <path
         d="M 0,0 H 4281 V 1207 H 0 Z"
         id="path35" />
    </clipPath>
    <clipPath
       clipPathUnits="userSpaceOnUse"
       id="clipPath36">
      <path
         d="M 0,0 H 4281 V 1207 H 0 Z"
         id="path36" />
    </clipPath>
    <clipPath
       clipPathUnits="userSpaceOnUse"
       id="clipPath37">
      <path
         d="M 0,0 H 4281 V 1207 H 0 Z"
         id="path37" />
    </clipPath>
    <clipPath
       clipPathUnits="userSpaceOnUse"
       id="clipPath38">
      <path
         d="M 0,0 H 4281 V 1207 H 0 Z"
         id="path38" />
    </clipPath>
    <clipPath
       clipPathUnits="userSpaceOnUse"
       id="clipPath39">
      <path
         d="M 0,0 H 4281 V 1207 H 0 Z"
         id="path39" />
    </clipPath>
    <clipPath
       clipPathUnits="userSpaceOnUse"
       id="clipPath40">
      <path
         d="M 0,0 H 4281 V 1207 H 0 Z"
         id="path40" />
    </clipPath>
    <clipPath
       clipPathUnits="userSpaceOnUse"
       id="clipPath41">
      <path
         d="M 0,0 H 4281 V 1207 H 0 Z"
         id="path41" />
    </clipPath>
    <clipPath
       clipPathUnits="userSpaceOnUse"
       id="clipPath42">
      <path
         d="M 0,0 H 4281 V 1207 H 0 Z"
         id="path42" />
    </clipPath>
    <clipPath
       clipPathUnits="userSpaceOnUse"
       id="clipPath43">
      <path
         d="M 0,0 H 4281 V 1207 H 0 Z"
         id="path43" />
    </clipPath>
    <clipPath
       clipPathUnits="userSpaceOnUse"
       id="5842304746-clipPath1">
      <path
         d="m -65.076,-347.6943 h 4280.9998 v 1207 H -65.076 Z"
         id="path44" />
    </clipPath>
    <clipPath
       clipPathUnits="userSpaceOnUse"
       id="clipPath45">
      <path
         d="M 0,0 H 4281 V 1207 H 0 Z"
         id="path45" />
    </clipPath>
    <clipPath
       clipPathUnits="userSpaceOnUse"
       id="584230474289-clipPath1">
      <path
         d="m -14.7039,-368.2896 h 4281.0003 v 1207 H -14.7039 Z"
         id="path46" />
    </clipPath>
    <clipPath
       clipPathUnits="userSpaceOnUse"
       id="584230474337-clipPath1">
      <path
         d="M -23.9363,-376.7215 H 4257.064 v 1207 H -23.9363 Z"
         id="path47" />
    </clipPath>
    <clipPath
       clipPathUnits="userSpaceOnUse"
       id="584230474567-clipPath1">
      <path
         d="m -29.7571,-368.4769 h 4281.0003 v 1207 H -29.7571 Z"
         id="path48" />
    </clipPath>
    <clipPath
       clipPathUnits="userSpaceOnUse"
       id="clipPath49">
      <path
         d="M 0,0 H 4281 V 1207 H 0 Z"
         id="path49" />
    </clipPath>
    <clipPath
       clipPathUnits="userSpaceOnUse"
       id="584230474837-clipPath1">
      <path
         d="m -137.069,-181.4338 h 4281.0002 v 1207 H -137.069 Z"
         id="path50" />
    </clipPath>
    <clipPath
       clipPathUnits="userSpaceOnUse"
       id="clipPath51">
      <path
         d="M 0,0 H 4281 V 1207 H 0 Z"
         id="path51" />
    </clipPath>
    <clipPath
       clipPathUnits="userSpaceOnUse"
       id="584230474752-clipPath1">
      <path
         d="m -137.069,-347.6943 h 4281.0002 v 1207 H -137.069 Z"
         id="path52" />
    </clipPath>
    <clipPath
       clipPathUnits="userSpaceOnUse"
       id="clipPath53">
      <path
         d="M 0,0 H 4281 V 1207 H 0 Z"
         id="path53" />
    </clipPath>
    <clipPath
       clipPathUnits="userSpaceOnUse"
       id="584230474637-clipPath1">
      <path
         d="M -209.5619,-181.4338 H 4071.438 v 1207 H -209.5619 Z"
         id="path54" />
    </clipPath>
    <clipPath
       clipPathUnits="userSpaceOnUse"
       id="clipPath55">
      <path
         d="M 0,0 H 4281 V 1207 H 0 Z"
         id="path55" />
    </clipPath>
    <clipPath
       clipPathUnits="userSpaceOnUse"
       id="584230474635-clipPath1">
      <path
         d="M -209.5619,-347.6943 H 4071.438 v 1207 H -209.5619 Z"
         id="path56" />
    </clipPath>
    <clipPath
       clipPathUnits="userSpaceOnUse"
       id="clipPath57">
      <path
         d="M 0,0 H 4281 V 1207 H 0 Z"
         id="path57" />
    </clipPath>
    <clipPath
       clipPathUnits="userSpaceOnUse"
       id="584230474203-clipPath1">
      <path
         d="m -353.1795,-265.1891 h 4281.0001 v 1207 H -353.1795 Z"
         id="path58" />
    </clipPath>
    <clipPath
       clipPathUnits="userSpaceOnUse"
       id="clipPath59">
      <path
         d="M 0,0 H 4281 V 1207 H 0 Z"
         id="path59" />
    </clipPath>
    <clipPath
       clipPathUnits="userSpaceOnUse"
       id="584230474709-clipPath1">
      <path
         d="M -389.0211,-233.762 H 3891.979 v 1207 H -389.0211 Z"
         id="path60" />
    </clipPath>
    <clipPath
       clipPathUnits="userSpaceOnUse"
       id="584230474778-clipPath1">
      <path
         d="m -408.3907,-242.0066 h 4281.0001 v 1207 H -408.3907 Z"
         id="path61" />
    </clipPath>
    <clipPath
       clipPathUnits="userSpaceOnUse"
       id="clipPath62">
      <path
         d="M 0,0 H 4281 V 1207 H 0 Z"
         id="path62" />
    </clipPath>
    <clipPath
       clipPathUnits="userSpaceOnUse"
       id="584230474919-clipPath1">
      <path
         d="m -344.0203,-177.0308 h 4281 v 1206.9999 h -4281 z"
         id="path63" />
    </clipPath>
    <clipPath
       clipPathUnits="userSpaceOnUse"
       id="clipPath64">
      <path
         d="M 0,0 H 4281 V 1207 H 0 Z"
         id="path64" />
    </clipPath>
    <clipPath
       clipPathUnits="userSpaceOnUse"
       id="584230474216-clipPath1">
      <path
         d="m -281.0548,-347.6943 h 4280.9999 v 1207 H -281.0548 Z"
         id="path65" />
    </clipPath>
    <clipPath
       clipPathUnits="userSpaceOnUse"
       id="clipPath66">
      <path
         d="M 0,0 H 4281 V 1207 H 0 Z"
         id="path66" />
    </clipPath>
    <clipPath
       clipPathUnits="userSpaceOnUse"
       id="584230474960-clipPath1">
      <path
         d="m -261.3272,-385.9238 h 4281.0001 v 1207 H -261.3272 Z"
         id="path67" />
    </clipPath>
    <clipPath
       clipPathUnits="userSpaceOnUse"
       id="clipPath68">
      <path
         d="M 0,0 H 4281 V 1207 H 0 Z"
         id="path68" />
    </clipPath>
    <clipPath
       clipPathUnits="userSpaceOnUse"
       id="58423047435-clipPath1">
      <path
         d="m -199.4782,-463.4851 h 4280.9999 v 1207 H -199.4782 Z"
         id="path69" />
    </clipPath>
    <clipPath
       clipPathUnits="userSpaceOnUse"
       id="clipPath70">
      <path
         d="M 0,0 H 4281 V 1207 H 0 Z"
         id="path70" />
    </clipPath>
    <clipPath
       clipPathUnits="userSpaceOnUse"
       id="584230474793-clipPath1">
      <path
         d="m -220.4387,-427.4889 h 4281 v 1207 h -4281 z"
         id="path71" />
    </clipPath>
    <clipPath
       clipPathUnits="userSpaceOnUse"
       id="584230474147-clipPath1">
      <path
         d="m -239.8083,-435.7335 h 4281 v 1207 h -4281 z"
         id="path72" />
    </clipPath>
    <clipPath
       clipPathUnits="userSpaceOnUse"
       id="clipPath73">
      <path
         d="M 0,0 H 4281 V 1207 H 0 Z"
         id="path73" />
    </clipPath>
    <clipPath
       clipPathUnits="userSpaceOnUse"
       id="584230474653-clipPath1">
      <path
         d="m -220.688,-499.4813 h 4281 v 1207 h -4281 z"
         id="path74" />
    </clipPath>
    <clipPath
       clipPathUnits="userSpaceOnUse"
       id="58423047448-clipPath1">
      <path
         d="m -240.9204,-507.8063 h 4281 v 1207 h -4281 z"
         id="path75" />
    </clipPath>
    <clipPath
       clipPathUnits="userSpaceOnUse"
       id="584230474565-clipPath2">
      <path
         d="m 45.2298,417.0422 h 99.0253 v 20.2092 H 45.2298 Z"
         id="path170" />
    </clipPath>
    <clipPath
       clipPathUnits="userSpaceOnUse"
       id="clipPath76">
      <path
         d="M 0,0 H 4281 V 1207 H 0 Z"
         id="path76" />
    </clipPath>
    <clipPath
       clipPathUnits="userSpaceOnUse"
       id="clipPath77">
      <path
         d="M 0,0 H 4281 V 1207 H 0 Z"
         id="path77" />
    </clipPath>
  </defs>
  <g
     inkscape:label="Layer 1"
     inkscape:groupmode="layer"
     id="layer1"
     transform="translate(-33.349186,-50.270832)">
    <g
       text-rendering="geometricPrecision"
       id="g185"
       transform="matrix(0.26458333,0,0,0.26458333,42.152006,21.719247)">
      <path
         d="m 70.3151,241.3851 c 0.4304,-0.2485 0.5778,-0.7986 0.3293,-1.229 -0.2485,-0.4304 -0.7986,-0.5778 -1.229,-0.3293 l -26.9408,15.5543 c -0.4304,0.2485 -0.5778,0.7986 -0.3293,1.229 0.2484,0.4304 0.7985,0.5778 1.2289,0.3293 z m 0.7791,-9.107 c 0.4304,-0.2485 0.5778,-0.7986 0.3293,-1.229 -0.2484,-0.4304 -0.7985,-0.5778 -1.2289,-0.3293 l -35.9965,20.7826 c -0.4304,0.2485 -0.5778,0.7986 -0.3293,1.229 0.2485,0.4303 0.7986,0.5777 1.229,0.3293 z"
         stroke="none"
         clip-path="url(#584230474868-clipPath1)"
         id="path185" />
    </g>
    <g
       text-rendering="geometricPrecision"
       id="g186"
       transform="matrix(0.26458333,0,0,0.26458333,42.152006,21.719247)">
      <path
         d="m 33.7483,252.2815 v 41.5651 c 0,0.497 0.4027,0.8997 0.8996,0.8997 0.497,0 0.8997,-0.4027 0.8997,-0.8997 v -41.5651 c 0,-0.497 -0.4027,-0.8996 -0.8997,-0.8996 -0.4969,0 -0.8996,0.4026 -0.8996,0.8996 z"
         stroke="none"
         clip-path="url(#584230474868-clipPath1)"
         id="path186" />
    </g>
    <g
       text-rendering="geometricPrecision"
       id="g187"
       transform="matrix(0.26458333,0,0,0.26458333,42.152006,21.719247)">
      <path
         d="m 43.3742,289.1888 c -0.4304,-0.2485 -0.9805,-0.1011 -1.2289,0.3293 -0.2485,0.4304 -0.1011,0.9805 0.3293,1.2289 l 26.9408,15.5544 c 0.4304,0.2485 0.9805,0.1011 1.229,-0.3293 0.2485,-0.4304 0.1011,-0.9805 -0.3293,-1.229 z m -8.2764,3.8787 c -0.4304,-0.2485 -0.9805,-0.1011 -1.229,0.3293 -0.2485,0.4304 -0.1011,0.9805 0.3293,1.229 l 35.9965,20.7826 c 0.4304,0.2484 0.9805,0.101 1.2289,-0.3294 0.2485,-0.4303 0.1011,-0.9804 -0.3293,-1.2289 z"
         stroke="none"
         clip-path="url(#584230474868-clipPath1)"
         id="path187" />
    </g>
    <g
       text-rendering="geometricPrecision"
       id="g188"
       transform="matrix(0.26458333,0,0,0.26458333,42.152006,21.719247)">
      <path
         d="m 71.0942,315.4084 35.9965,-20.7826 c 0.4304,-0.2485 0.5778,-0.7986 0.3293,-1.229 -0.2485,-0.4304 -0.7986,-0.5778 -1.229,-0.3293 l -35.9964,20.7826 c -0.4304,0.2485 -0.5778,0.7986 -0.3293,1.2289 0.2485,0.4304 0.7985,0.5778 1.2289,0.3294 z"
         stroke="none"
         clip-path="url(#584230474868-clipPath1)"
         id="path188" />
    </g>
    <g
       text-rendering="geometricPrecision"
       id="g189"
       transform="matrix(0.26458333,0,0,0.26458333,42.152006,21.719247)">
      <path
         d="m 70.1946,232.2781 35.9964,20.7826 c 0.4304,0.2484 0.9805,0.101 1.229,-0.3293 0.2485,-0.4304 0.1011,-0.9805 -0.3293,-1.229 L 71.0942,230.7198 c -0.4304,-0.2485 -0.9804,-0.1011 -1.2289,0.3293 -0.2485,0.4304 -0.1011,0.9805 0.3293,1.229 z"
         stroke="none"
         clip-path="url(#584230474868-clipPath1)"
         id="path189" />
    </g>
    <g
       text-rendering="geometricPrecision"
       id="g190"
       transform="matrix(0.26458333,0,0,0.26458333,42.152006,21.719247)">
      <path
         d="m 98.2439,288.6184 c 0,0.497 0.4027,0.8997 0.8997,0.8997 0.4969,0 0.8996,-0.4027 0.8996,-0.8997 v -31.1086 c 0,-0.497 -0.4027,-0.8997 -0.8996,-0.8997 -0.497,0 -0.8997,0.4027 -0.8997,0.8997 z m 7.4973,5.2282 c 0,0.497 0.4027,0.8997 0.8997,0.8997 0.4969,0 0.8996,-0.4027 0.8996,-0.8997 v -41.5651 c 0,-0.497 -0.4027,-0.8996 -0.8996,-0.8996 -0.497,0 -0.8997,0.4026 -0.8997,0.8996 z"
         stroke="none"
         clip-path="url(#584230474868-clipPath1)"
         id="path190" />
    </g>
    <g
       text-rendering="geometricPrecision"
       id="g191"
       transform="matrix(0.26458333,0,0,0.26458333,42.152006,21.719247)">
      <path
         d="m 142.1875,230.7198 -35.9965,20.7826 c -0.4304,0.2485 -0.5778,0.7986 -0.3293,1.229 0.2485,0.4303 0.7986,0.5777 1.229,0.3293 l 35.9965,-20.7826 c 0.4303,-0.2485 0.5777,-0.7986 0.3293,-1.229 -0.2485,-0.4304 -0.7986,-0.5778 -1.229,-0.3293 z"
         stroke="none"
         clip-path="url(#584230474868-clipPath1)"
         id="path191" />
    </g>
    <g
       text-rendering="geometricPrecision"
       id="g192"
       transform="matrix(0.26458333,0,0,0.26458333,42.152006,21.719247)">
      <path
         d="m 106.191,294.6258 35.9965,20.7826 c 0.4304,0.2484 0.9805,0.101 1.229,-0.3294 0.2484,-0.4303 0.101,-0.9804 -0.3293,-1.2289 l -35.9965,-20.7826 c -0.4304,-0.2485 -0.9805,-0.1011 -1.229,0.3293 -0.2485,0.4304 -0.1011,0.9805 0.3293,1.229 z"
         stroke="none"
         clip-path="url(#584230474868-clipPath1)"
         id="path192" />
    </g>
    <g
       text-rendering="geometricPrecision"
       id="g193"
       transform="matrix(0.26458333,0,0,0.26458333,42.152006,21.719247)">
      <path
         d="m 143.0872,315.4084 35.9964,-20.7826 c 0.4304,-0.2485 0.5778,-0.7986 0.3293,-1.229 -0.2485,-0.4304 -0.7986,-0.5778 -1.2289,-0.3293 l -35.9965,20.7826 c -0.4304,0.2485 -0.5778,0.7986 -0.3293,1.2289 0.2485,0.4304 0.7986,0.5778 1.229,0.3294 z"
         stroke="none"
         clip-path="url(#584230474868-clipPath1)"
         id="path193" />
    </g>
    <g
       text-rendering="geometricPrecision"
       id="g194"
       transform="matrix(0.26458333,0,0,0.26458333,42.152006,21.719247)">
      <path
         d="m 177.7341,252.2815 v 41.5651 c 0,0.497 0.4027,0.8997 0.8997,0.8997 0.497,0 0.8997,-0.4027 0.8997,-0.8997 v -41.5651 c 0,-0.497 -0.4027,-0.8996 -0.8997,-0.8996 -0.497,0 -0.8997,0.4026 -0.8997,0.8996 z"
         stroke="none"
         clip-path="url(#584230474868-clipPath1)"
         id="path194" />
    </g>
    <g
       text-rendering="geometricPrecision"
       id="g195"
       transform="matrix(0.26458333,0,0,0.26458333,42.152006,21.719247)">
      <path
         d="m 142.1875,232.2781 35.9965,20.7826 c 0.4303,0.2484 0.9804,0.101 1.2289,-0.3293 0.2485,-0.4304 0.1011,-0.9805 -0.3293,-1.229 l -35.9964,-20.7826 c -0.4304,-0.2485 -0.9805,-0.1011 -1.229,0.3293 -0.2485,0.4304 -0.1011,0.9805 0.3293,1.229 z"
         stroke="none"
         clip-path="url(#584230474868-clipPath1)"
         id="path195" />
    </g>
    <g
       text-rendering="geometricPrecision"
       id="g196"
       transform="matrix(0.26458333,0,0,0.26458333,42.152006,21.719247)">
      <path
         d="m 214.3009,241.3851 c 0.4304,-0.2485 0.5778,-0.7986 0.3293,-1.229 -0.2484,-0.4304 -0.7985,-0.5778 -1.2289,-0.3293 l -26.9409,15.5543 c -0.4304,0.2485 -0.5778,0.7986 -0.3293,1.229 0.2485,0.4304 0.7986,0.5778 1.229,0.3293 z m 0.7792,-9.107 c 0.4304,-0.2485 0.5778,-0.7986 0.3293,-1.229 -0.2485,-0.4304 -0.7986,-0.5778 -1.229,-0.3293 l -35.9964,20.7826 c -0.4304,0.2485 -0.5778,0.7986 -0.3293,1.229 0.2484,0.4303 0.7985,0.5777 1.2289,0.3293 z"
         stroke="none"
         clip-path="url(#584230474868-clipPath1)"
         id="path196" />
    </g>
    <g
       text-rendering="geometricPrecision"
       id="g197"
       transform="matrix(0.26458333,0,0,0.26458333,42.152006,21.719247)">
      <path
         d="m 187.3601,289.1888 c -0.4304,-0.2485 -0.9805,-0.1011 -1.229,0.3293 -0.2485,0.4304 -0.1011,0.9805 0.3293,1.2289 l 26.9409,15.5544 c 0.4304,0.2485 0.9805,0.1011 1.2289,-0.3293 0.2485,-0.4304 0.1011,-0.9805 -0.3293,-1.229 z m -8.2765,3.8787 c -0.4304,-0.2485 -0.9805,-0.1011 -1.2289,0.3293 -0.2485,0.4304 -0.1011,0.9805 0.3293,1.229 l 35.9964,20.7826 c 0.4304,0.2484 0.9805,0.101 1.229,-0.3294 0.2485,-0.4303 0.1011,-0.9804 -0.3293,-1.2289 z"
         stroke="none"
         clip-path="url(#584230474868-clipPath1)"
         id="path197" />
    </g>
    <g
       text-rendering="geometricPrecision"
       id="g198"
       transform="matrix(0.26458333,0,0,0.26458333,42.152006,21.719247)">
      <path
         d="m 215.0801,315.4084 35.9965,-20.7826 c 0.4303,-0.2485 0.5777,-0.7986 0.3293,-1.229 -0.2485,-0.4304 -0.7986,-0.5778 -1.229,-0.3293 l -35.9965,20.7826 c -0.4304,0.2485 -0.5778,0.7986 -0.3293,1.2289 0.2485,0.4304 0.7986,0.5778 1.229,0.3294 z"
         stroke="none"
         clip-path="url(#584230474868-clipPath1)"
         id="path198" />
    </g>
    <g
       text-rendering="geometricPrecision"
       id="g199"
       transform="matrix(0.26458333,0,0,0.26458333,42.152006,21.719247)">
      <path
         d="m 214.1804,232.2781 35.9965,20.7826 c 0.4304,0.2484 0.9805,0.101 1.229,-0.3293 0.2484,-0.4304 0.101,-0.9805 -0.3293,-1.229 l -35.9965,-20.7826 c -0.4304,-0.2485 -0.9805,-0.1011 -1.229,0.3293 -0.2485,0.4304 -0.1011,0.9805 0.3293,1.229 z"
         stroke="none"
         clip-path="url(#584230474868-clipPath1)"
         id="path199" />
    </g>
    <g
       text-rendering="geometricPrecision"
       id="g200"
       transform="matrix(0.26458333,0,0,0.26458333,42.152006,21.719247)">
      <path
         d="m 242.2297,288.6184 c 0,0.497 0.4027,0.8997 0.8997,0.8997 0.497,0 0.8997,-0.4027 0.8997,-0.8997 v -31.1086 c 0,-0.497 -0.4027,-0.8997 -0.8997,-0.8997 -0.497,0 -0.8997,0.4027 -0.8997,0.8997 z m 7.4973,5.2282 c 0,0.497 0.4027,0.8997 0.8997,0.8997 0.497,0 0.8997,-0.4027 0.8997,-0.8997 v -41.5651 c 0,-0.497 -0.4027,-0.8996 -0.8997,-0.8996 -0.497,0 -0.8997,0.4026 -0.8997,0.8996 z"
         stroke="none"
         clip-path="url(#584230474868-clipPath1)"
         id="path200" />
    </g>
    <g
       text-rendering="geometricPrecision"
       id="g201"
       transform="matrix(0.26458333,0,0,0.26458333,42.152006,21.719247)">
      <path
         d="m 286.1733,230.7198 -35.9964,20.7826 c -0.4304,0.2485 -0.5778,0.7986 -0.3293,1.229 0.2485,0.4303 0.7986,0.5777 1.229,0.3293 l 35.9964,-20.7826 c 0.4304,-0.2485 0.5778,-0.7986 0.3293,-1.229 -0.2485,-0.4304 -0.7986,-0.5778 -1.229,-0.3293 z"
         stroke="none"
         clip-path="url(#584230474868-clipPath1)"
         id="path201" />
    </g>
    <g
       text-rendering="geometricPrecision"
       id="g202"
       transform="matrix(0.26458333,0,0,0.26458333,42.152006,21.719247)">
      <path
         d="m 287.073,313.8501 -35.9964,-20.7826 c -0.4304,-0.2485 -0.9805,-0.1011 -1.229,0.3293 -0.2485,0.4304 -0.1011,0.9805 0.3293,1.229 l 35.9964,20.7826 c 0.4304,0.2484 0.9805,0.101 1.229,-0.3294 0.2485,-0.4303 0.1011,-0.9804 -0.3293,-1.2289 z"
         stroke="none"
         clip-path="url(#584230474868-clipPath1)"
         id="path202" />
    </g>
    <g
       text-rendering="geometricPrecision"
       id="g203"
       transform="matrix(0.26458333,0,0,0.26458333,42.152006,21.719247)">
      <path
         d="m 287.073,315.4084 35.9965,-20.7826 c 0.4303,-0.2485 0.5777,-0.7986 0.3293,-1.229 -0.2485,-0.4304 -0.7986,-0.5778 -1.229,-0.3293 l -35.9965,20.7826 c -0.4303,0.2485 -0.5777,0.7986 -0.3293,1.2289 0.2485,0.4304 0.7986,0.5778 1.229,0.3294 z"
         stroke="none"
         clip-path="url(#584230474868-clipPath1)"
         id="path203" />
    </g>
    <g
       text-rendering="geometricPrecision"
       id="g204"
       transform="matrix(0.26458333,0,0,0.26458333,42.152006,21.719247)">
      <path
         d="M 323.0695,251.5024 287.073,230.7198 c -0.4304,-0.2485 -0.9805,-0.1011 -1.229,0.3293 -0.2484,0.4304 -0.101,0.9805 0.3293,1.229 l 35.9965,20.7826 c 0.4304,0.2484 0.9805,0.101 1.229,-0.3293 0.2484,-0.4304 0.101,-0.9805 -0.3293,-1.229 z"
         stroke="none"
         clip-path="url(#584230474868-clipPath1)"
         id="path204" />
    </g>
    <g
       text-rendering="geometricPrecision"
       id="g205"
       transform="matrix(0.26458333,0,0,0.26458333,42.152006,21.719247)">
      <path
         d="m 321.72,252.2815 v 41.5651 c 0,0.497 0.4027,0.8997 0.8996,0.8997 0.497,0 0.8997,-0.4027 0.8997,-0.8997 v -41.5651 c 0,-0.497 -0.4027,-0.8996 -0.8997,-0.8996 -0.4969,0 -0.8996,0.4026 -0.8996,0.8996 z"
         stroke="none"
         clip-path="url(#584230474868-clipPath1)"
         id="path205" />
    </g>
    <g
       text-rendering="geometricPrecision"
       id="g206"
       transform="matrix(0.26458333,0,0,0.26458333,42.152006,21.719247)">
      <path
         d="m 69.7447,314.6292 v 30.9883 c 0,0.497 0.4027,0.8997 0.8997,0.8997 0.497,0 0.8997,-0.4027 0.8997,-0.8997 v -30.9883 c 0,-0.497 -0.4027,-0.8996 -0.8997,-0.8996 -0.497,0 -0.8997,0.4026 -0.8997,0.8996 z"
         stroke="none"
         clip-path="url(#584230474868-clipPath1)"
         id="path206" />
    </g>
    <g
       text-rendering="geometricPrecision"
       id="g207"
       transform="matrix(0.26458333,0,0,0.26458333,42.152006,21.719247)">
      <path
         d="m 61.6091,360.372 -19.4813,11.2476 c -0.4304,0.2485 -0.5778,0.7986 -0.3293,1.229 0.2485,0.4304 0.7985,0.5778 1.2289,0.3293 l 19.4814,-11.2476 c 0.4304,-0.2485 0.5778,-0.7986 0.3293,-1.229 -0.2485,-0.4304 -0.7986,-0.5778 -1.229,-0.3293 z"
         stroke="none"
         clip-path="url(#584230474868-clipPath1)"
         id="path207" />
    </g>
    <g
       text-rendering="geometricPrecision"
       id="g208"
       transform="matrix(0.26458333,0,0,0.26458333,42.152006,21.719247)">
      <path
         d="m 137.989,233.6632 c 0,0.497 0.4027,0.8997 0.8997,0.8997 0.497,0 0.8996,-0.4027 0.8996,-0.8997 v -32.8816 c 0,-0.4969 -0.4026,-0.8996 -0.8996,-0.8996 -0.497,0 -0.8997,0.4027 -0.8997,0.8996 z m 7.4973,0 c 0,0.497 0.4027,0.8997 0.8997,0.8997 0.4969,0 0.8997,-0.4027 0.8997,-0.8997 v -32.8816 c 0,-0.4969 -0.4028,-0.8996 -0.8997,-0.8996 -0.497,0 -0.8997,0.4027 -0.8997,0.8996 z"
         stroke="none"
         clip-path="url(#584230474868-clipPath1)"
         id="path208" />
    </g>
    <g
       text-rendering="geometricPrecision"
       id="g209"
       transform="matrix(0.26458333,0,0,0.26458333,42.152006,21.719247)">
      <path
         d="m 147.2857,312.4649 c 0,-0.4969 -0.4028,-0.8997 -0.8997,-0.8997 -0.497,0 -0.8997,0.4028 -0.8997,0.8997 v 33.1526 c 0,0.497 0.4027,0.8997 0.8997,0.8997 0.4969,0 0.8997,-0.4027 0.8997,-0.8997 z m -7.4974,0 c 0,-0.4969 -0.4026,-0.8997 -0.8996,-0.8997 -0.497,0 -0.8997,0.4028 -0.8997,0.8997 v 33.1526 c 0,0.497 0.4027,0.8997 0.8997,0.8997 0.497,0 0.8996,-0.4027 0.8996,-0.8997 z"
         stroke="none"
         clip-path="url(#584230474868-clipPath1)"
         id="path209" />
    </g>
    <g
       text-rendering="geometricPrecision"
       id="g210"
       transform="matrix(0.26458333,0,0,0.26458333,42.152006,21.719247)">
      <path
         d="m 215.5299,231.4989 v -30.7173 c 0,-0.4969 -0.4027,-0.8996 -0.8997,-0.8996 -0.4969,0 -0.8996,0.4027 -0.8996,0.8996 v 30.7173 c 0,0.497 0.4027,0.8997 0.8996,0.8997 0.497,0 0.8997,-0.4027 0.8997,-0.8997 z"
         stroke="none"
         clip-path="url(#584230474868-clipPath1)"
         id="path210" />
    </g>
    <g
       text-rendering="geometricPrecision"
       id="g211"
       transform="matrix(0.26458333,0,0,0.26458333,42.152006,21.719247)">
      <path
         d="m 213.7306,314.6292 v 30.9883 c 0,0.497 0.4027,0.8997 0.8996,0.8997 0.497,0 0.8997,-0.4027 0.8997,-0.8997 v -30.9883 c 0,-0.497 -0.4027,-0.8996 -0.8997,-0.8996 -0.4969,0 -0.8996,0.4026 -0.8996,0.8996 z"
         stroke="none"
         clip-path="url(#584230474868-clipPath1)"
         id="path211" />
    </g>
    <g
       text-rendering="geometricPrecision"
       id="g212"
       transform="matrix(0.26458333,0,0,0.26458333,42.152006,21.719247)">
      <path
         d="m 322.6196,252.2815 0.5539,0.709 39.0386,-24.5063 -6.0201,-2.4323 -6.0201,-2.4323 -28.1062,27.953 z"
         stroke="none"
         clip-path="url(#584230474868-clipPath1)"
         id="path212" />
    </g>
    <g
       text-rendering="geometricPrecision"
       id="g213"
       transform="matrix(0.26458333,0,0,0.26458333,42.152006,21.719247)">
      <path
         d="m 325.1459,252.3631 -1.6815,-0.6951 -0.9899,1.6474 v 0 l 1.4032,1.1584 v 0 z m 5.4651,2.259 -1.6816,-0.6951 v 0 l -1.8946,3.1532 v 0 l 1.4031,1.1584 z m 5.465,2.259 -1.6816,-0.6951 v 0 l -2.7994,4.659 v 0 l 1.4031,1.1584 v 0 z m 5.465,2.2589 -1.6816,-0.695 v 0 l -3.7042,6.1648 v 0 l 1.4032,1.1584 z m 5.465,2.259 -1.6816,-0.695 v 0 l -4.6089,7.6706 v 0 l 1.4031,1.1583 v 0 z m 5.465,2.2591 -1.6816,-0.6951 v 0 l -5.5137,9.1763 1.4032,1.1584 2.896,-4.8198 z"
         stroke="none"
         clip-path="url(#584230474868-clipPath1)"
         id="path213" />
    </g>
    <g
       text-rendering="geometricPrecision"
       id="g214"
       transform="matrix(0.26458333,0,0,0.26458333,42.152006,21.719247)">
      <path
         d="m 355.0364,227.5256 30.474,12.3123 c 0.4608,0.1862 0.985,-0.0363 1.1711,-0.4971 0.1862,-0.4608 -0.0363,-0.985 -0.4971,-1.1712 l -30.474,-12.3123 c -0.4608,-0.1862 -0.985,0.0364 -1.1712,0.4971 -0.1861,0.4608 0.0364,0.9851 0.4972,1.1712 z"
         stroke="none"
         clip-path="url(#584230474868-clipPath1)"
         id="path214" />
    </g>
    <g
       text-rendering="geometricPrecision"
       id="g215"
       transform="matrix(0.26458333,0,0,0.26458333,42.152006,21.719247)">
      <path
         d="m 351.0715,229.4816 c 0.0692,0.4922 0.524,0.8349 1.0161,0.7657 0.4922,-0.0692 0.8349,-0.524 0.7658,-1.0161 l -4.5664,-32.4911 c -0.0691,-0.4921 -0.5239,-0.8348 -1.0161,-0.7657 -0.4921,0.0692 -0.8349,0.524 -0.7657,1.0162 z m 7.4244,-1.0434 c 0.0691,0.4921 0.524,0.8349 1.0161,0.7657 0.4922,-0.0692 0.8349,-0.524 0.7657,-1.0161 l -4.5663,-32.4911 c -0.0692,-0.4921 -0.524,-0.8349 -1.0161,-0.7657 -0.4922,0.0692 -0.8349,0.524 -0.7657,1.0161 z"
         stroke="none"
         clip-path="url(#584230474868-clipPath1)"
         id="path215" />
    </g>
    <g
       text-rendering="geometricPrecision"
       id="g216"
       transform="matrix(0.26458333,0,0,0.26458333,42.152006,21.719247)">
      <path
         d="m 287.7894,316.3781 -0.2665,-1.7489 h -0.8997 -0.8997 l -0.2666,1.7489 z m 0.8914,5.8479 -0.2743,-1.7994 v 0 h -3.5667 v 0 l -0.2742,1.7994 v 0 z m 0.8913,5.8479 -0.2742,-1.7994 v 0 h -5.3494 v 0 l -0.2743,1.7994 z m 0.8914,5.8479 -0.2743,-1.7994 v 0 h -7.132 v 0 l -0.2743,1.7994 v 0 z m 0.8913,5.8478 -0.2742,-1.7993 v 0 h -8.9148 v 0 l -0.2743,1.7993 v 0 z m 0.8914,5.8479 -0.2743,-1.7993 v 0 h -10.6975 v 0 l -0.2742,1.7993 h 5.623 z"
         stroke="none"
         clip-path="url(#584230474868-clipPath1)"
         id="path216" />
    </g>
    <g
       text-rendering="geometricPrecision"
       id="g217"
       transform="matrix(0.26458333,0,0,0.26458333,42.152006,21.719247)">
      <path
         d="m 288.5782,430.4072 -0.901,-63.3654 c -0.007,-0.4969 -0.4155,-0.8939 -0.9124,-0.8868 -0.4969,0.007 -0.8938,0.4155 -0.8868,0.9124 l 0.9011,63.3653 c 0.007,0.497 0.4154,0.8939 0.9123,0.8868 0.4969,-0.007 0.8939,-0.4154 0.8868,-0.9123 z"
         stroke="none"
         clip-path="url(#584230474868-clipPath1)"
         id="path217" />
    </g>
    <g
       text-rendering="geometricPrecision"
       id="g218"
       transform="matrix(0.26458333,0,0,0.26458333,42.152006,21.719247)">
      <path
         d="M 288.4578,429.9701 273.2134,403.567 c -0.2485,-0.4304 -0.7985,-0.5778 -1.2289,-0.3293 -0.4304,0.2484 -0.5778,0.7986 -0.3293,1.2289 l 15.2443,26.4032 c 0.2485,0.4304 0.7986,0.5778 1.229,0.3293 0.4304,-0.2485 0.5777,-0.7986 0.3293,-1.229 z"
         stroke="none"
         clip-path="url(#584230474868-clipPath1)"
         id="path218" />
    </g>
    <g
       text-rendering="geometricPrecision"
       id="g219"
       transform="matrix(0.26458333,0,0,0.26458333,42.152006,21.719247)">
      <path
         d="m 258.2286,393.5241 h -32.899 c -0.497,0 -0.8997,0.4027 -0.8997,0.8997 0,0.4969 0.4027,0.8996 0.8997,0.8996 h 32.899 c 0.4969,0 0.8996,-0.4027 0.8996,-0.8996 0,-0.497 -0.4027,-0.8997 -0.8996,-0.8997 z"
         stroke="none"
         clip-path="url(#584230474868-clipPath1)"
         id="path219" />
    </g>
    <g
       text-rendering="geometricPrecision"
       id="g220"
       transform="matrix(0.26458333,0,0,0.26458333,42.152006,21.719247)">
      <path
         d="m 205.3257,430.8698 20.783,-35.9962 c 0.2485,-0.4304 0.1011,-0.9805 -0.3293,-1.229 -0.4304,-0.2485 -0.9805,-0.1011 -1.229,0.3293 l -20.783,35.9962 c -0.2485,0.4304 -0.1011,0.9805 0.3293,1.229 0.4304,0.2485 0.9805,0.1011 1.229,-0.3293 z"
         stroke="none"
         clip-path="url(#584230474868-clipPath1)"
         id="path220" />
    </g>
    <g
       text-rendering="geometricPrecision"
       id="g221"
       transform="matrix(0.26458333,0,0,0.26458333,42.152006,21.719247)">
      <path
         d="m 204.5465,430.42 -0.7791,0.4498 19.3979,39.295 2.1643,-3.7487 2.1642,-3.7486 -22.1681,-32.6974 z"
         stroke="none"
         clip-path="url(#584230474868-clipPath1)"
         id="path221" />
    </g>
    <g
       text-rendering="geometricPrecision"
       id="g222"
       transform="matrix(0.26458333,0,0,0.26458333,42.152006,21.719247)">
      <path
         d="m 287.6786,430.42 -0.7791,-0.4499 -22.1681,32.6974 2.1642,3.7486 2.1642,3.7487 19.398,-39.295 z"
         stroke="none"
         clip-path="url(#584230474868-clipPath1)"
         id="path222" />
    </g>
    <g
       text-rendering="geometricPrecision"
       id="g223"
       transform="matrix(0.26458333,0,0,0.26458333,42.152006,21.719247)">
      <path
         d="m 225.3296,466.4161 2.1642,-3.7486 h 37.2376 l 2.1642,3.7486 2.1642,3.7487 h -45.8945 z"
         stroke="none"
         clip-path="url(#584230474868-clipPath1)"
         id="path223" />
    </g>
    <g
       text-rendering="geometricPrecision"
       id="g224"
       transform="matrix(0.26458333,0,0,0.26458333,42.152006,21.719247)">
      <path
         d="m 203.6469,430.42 v 30.9883 c 0,0.4969 0.4027,0.8996 0.8996,0.8996 0.497,0 0.8997,-0.4027 0.8997,-0.8996 V 430.42 c 0,-0.497 -0.4027,-0.8997 -0.8997,-0.8997 -0.4969,0 -0.8996,0.4027 -0.8996,0.8997 z"
         stroke="none"
         clip-path="url(#584230474868-clipPath1)"
         id="path224" />
    </g>
    <g
       text-rendering="geometricPrecision"
       id="g225"
       transform="matrix(0.26458333,0,0,0.26458333,42.152006,21.719247)">
      <path
         d="m 224.4299,394.4238 v 30.9882 c 0,0.497 0.4027,0.8997 0.8997,0.8997 0.4969,0 0.8996,-0.4027 0.8996,-0.8997 v -30.9882 c 0,-0.497 -0.4027,-0.8997 -0.8996,-0.8997 -0.497,0 -0.8997,0.4027 -0.8997,0.8997 z"
         stroke="none"
         clip-path="url(#584230474868-clipPath1)"
         id="path225" />
    </g>
    <g
       text-rendering="geometricPrecision"
       id="g226"
       transform="matrix(0.26458333,0,0,0.26458333,42.152006,21.719247)">
      <path
         d="m 224.4299,466.4162 2e-4,31.1915 c 0,0.497 0.4027,0.8997 0.8997,0.8997 0.4969,0 0.8996,-0.4027 0.8996,-0.8997 l -2e-4,-31.1916 c 0,-0.4969 -0.4027,-0.8996 -0.8997,-0.8996 -0.4969,0 -0.8996,0.4027 -0.8996,0.8997 z"
         stroke="none"
         clip-path="url(#584230474868-clipPath1)"
         id="path226" />
    </g>
    <g
       fill="#ffffff"
       text-rendering="geometricPrecision"
       stroke="#ffffff"
       id="g517"
       transform="matrix(0.26458333,0,0,0.26458333,42.152006,21.719247)">
      <path
         d="m 69.1329,349.2162 c -1.9644,0 -3.5569,1.5925 -3.5569,3.5568 v 7.1137 c 0,1.9643 1.5925,3.5568 3.5569,3.5568 h 3.023 c 1.9644,0 3.5569,-1.5925 3.5569,-3.5568 v -7.1137 c 0,-1.9643 -1.5925,-3.5568 -3.5569,-3.5568 z"
         stroke="none"
         clip-path="url(#584230474868-clipPath1)"
         id="path517" />
    </g>
    <g
       fill="#ff0000"
       text-rendering="geometricPrecision"
       font-size="14px"
       font-family="sans-serif"
       transform="matrix(0.26458333,0,0,0.26458333,59.370031,113.71336)"
       stroke="#ff0000"
       id="g518">
      <text
         x="0"
         xml:space="preserve"
         y="14"
         clip-path="url(#5842304746-clipPath1)"
         stroke="none"
         id="text517">O</text>
    </g>
    <g
       fill="#ffffff"
       text-rendering="geometricPrecision"
       font-size="14px"
       font-family="sans-serif"
       stroke="#ffffff"
       id="g522"
       transform="matrix(0.26458333,0,0,0.26458333,42.152006,21.719247)">
      <path
         d="m 141.1258,182.9557 c -1.9644,0 -3.5568,1.5924 -3.5568,3.5568 v 7.1136 c 0,1.9644 1.5924,3.5569 3.5568,3.5569 h 3.0231 c 1.9644,0 3.5568,-1.5925 3.5568,-3.5569 v -7.1136 c 0,-1.9644 -1.5924,-3.5568 -3.5568,-3.5568 z"
         stroke="none"
         clip-path="url(#584230474868-clipPath1)"
         id="path521" />
      <text
         x="0"
         y="14"
         transform="translate(137.069,181.4338)"
         clip-path="url(#584230474837-clipPath1)"
         fill="#ff0000"
         stroke="none"
         xml:space="preserve"
         id="text521">O</text>
    </g>
    <g
       fill="#ffffff"
       text-rendering="geometricPrecision"
       font-size="14px"
       font-family="sans-serif"
       stroke="#ffffff"
       id="g523"
       transform="matrix(0.26458333,0,0,0.26458333,42.152006,21.719247)">
      <path
         d="m 141.1258,349.2162 c -1.9644,0 -3.5568,1.5925 -3.5568,3.5568 v 7.1137 c 0,1.9643 1.5924,3.5568 3.5568,3.5568 h 3.0231 c 1.9644,0 3.5568,-1.5925 3.5568,-3.5568 v -7.1137 c 0,-1.9643 -1.5924,-3.5568 -3.5568,-3.5568 z"
         stroke="none"
         clip-path="url(#584230474868-clipPath1)"
         id="path522" />
      <text
         x="0"
         y="14"
         transform="translate(137.069,347.6943)"
         clip-path="url(#584230474752-clipPath1)"
         fill="#ff0000"
         stroke="none"
         xml:space="preserve"
         id="text522">O</text>
    </g>
    <g
       fill="#ffffff"
       text-rendering="geometricPrecision"
       font-size="14px"
       font-family="sans-serif"
       stroke="#ffffff"
       id="g524"
       transform="matrix(0.26458333,0,0,0.26458333,42.152006,21.719247)">
      <path
         d="m 213.1187,182.9557 c -1.9644,0 -3.5568,1.5924 -3.5568,3.5568 v 7.1136 c 0,1.9644 1.5924,3.5569 3.5568,3.5569 h 13.756 c 1.9644,0 3.5568,-1.5925 3.5568,-3.5569 v -7.1136 c 0,-1.9644 -1.5924,-3.5568 -3.5568,-3.5568 z"
         stroke="none"
         clip-path="url(#584230474868-clipPath1)"
         id="path523" />
      <text
         x="0"
         y="14"
         transform="translate(209.5619,181.4338)"
         clip-path="url(#584230474637-clipPath1)"
         fill="#ff0000"
         stroke="none"
         xml:space="preserve"
         id="text523">OH</text>
    </g>
    <g
       fill="#ffffff"
       text-rendering="geometricPrecision"
       font-size="14px"
       font-family="sans-serif"
       stroke="#ffffff"
       id="g525"
       transform="matrix(0.26458333,0,0,0.26458333,42.152006,21.719247)">
      <path
         d="m 213.1187,349.2162 c -1.9644,0 -3.5568,1.5925 -3.5568,3.5568 v 7.1137 c 0,1.9643 1.5924,3.5568 3.5568,3.5568 h 13.756 c 1.9644,0 3.5568,-1.5925 3.5568,-3.5568 v -7.1137 c 0,-1.9643 -1.5924,-3.5568 -3.5568,-3.5568 z"
         stroke="none"
         clip-path="url(#584230474868-clipPath1)"
         id="path524" />
      <text
         x="0"
         y="14"
         transform="translate(209.5619,347.6943)"
         clip-path="url(#584230474635-clipPath1)"
         fill="#ff0000"
         stroke="none"
         xml:space="preserve"
         id="text524">OH</text>
    </g>
    <g
       fill="#ffffff"
       text-rendering="geometricPrecision"
       font-size="14px"
       font-family="sans-serif"
       stroke="#ffffff"
       id="g526"
       transform="matrix(0.26458333,0,0,0.26458333,42.152006,21.719247)">
      <path
         d="m 356.7364,266.711 c -1.9644,0 -3.5569,1.5924 -3.5569,3.5568 v 7.1137 c 0,1.9644 1.5925,3.5568 3.5569,3.5568 h 13.7559 c 1.9644,0 3.5569,-1.5924 3.5569,-3.5568 v -7.1137 c 0,-1.9644 -1.5925,-3.5568 -3.5569,-3.5568 z"
         stroke="none"
         clip-path="url(#584230474868-clipPath1)"
         id="path525" />
      <text
         x="0"
         y="14"
         transform="translate(353.1795,265.1891)"
         clip-path="url(#584230474203-clipPath1)"
         fill="#ff0000"
         stroke="none"
         xml:space="preserve"
         id="text525">OH</text>
    </g>
    <g
       fill="#ffffff"
       text-rendering="geometricPrecision"
       font-size="10px"
       font-family="sans-serif"
       stroke="#ffffff"
       id="g529"
       transform="matrix(0.26458333,0,0,0.26458333,42.152006,21.719247)">
      <path
         d="m 348.0771,178.5527 c -1.9644,0 -3.5568,1.5924 -3.5568,3.5568 v 7.1137 c 0,1.9643 1.5924,3.5568 3.5568,3.5568 h 3.0231 c 1.9644,0 3.5568,-1.5925 3.5568,-3.5568 v -7.1137 c 0,-1.9644 -1.5924,-3.5568 -3.5568,-3.5568 z"
         stroke="none"
         clip-path="url(#584230474868-clipPath1)"
         id="path528" />
      <text
         x="0"
         font-size="14px"
         y="14"
         transform="translate(344.0203,177.0308)"
         clip-path="url(#584230474919-clipPath1)"
         fill="#ff0000"
         stroke="none"
         xml:space="preserve"
         id="text528">O</text>
    </g>
    <g
       fill="#ffffff"
       text-rendering="geometricPrecision"
       font-size="14px"
       font-family="sans-serif"
       stroke="#ffffff"
       id="g530"
       transform="matrix(0.26458333,0,0,0.26458333,42.152006,21.719247)">
      <path
         d="m 285.1116,349.2162 c -1.9644,0 -3.5568,1.5925 -3.5568,3.5568 v 7.1137 c 0,1.9643 1.5924,3.5568 3.5568,3.5568 h 3.0231 c 1.9644,0 3.5568,-1.5925 3.5568,-3.5568 v -7.1137 c 0,-1.9643 -1.5924,-3.5568 -3.5568,-3.5568 z"
         stroke="none"
         clip-path="url(#584230474868-clipPath1)"
         id="path529" />
      <text
         x="0"
         y="14"
         transform="translate(281.0548,347.6943)"
         clip-path="url(#584230474216-clipPath1)"
         fill="#ff0000"
         stroke="none"
         xml:space="preserve"
         id="text529">O</text>
    </g>
    <g
       fill="#ffffff"
       text-rendering="geometricPrecision"
       font-size="14px"
       font-family="sans-serif"
       stroke="#ffffff"
       id="g531"
       transform="matrix(0.26458333,0,0,0.26458333,42.152006,21.719247)">
      <path
         d="m 265.3841,387.4456 c -1.9644,0 -3.5569,1.5925 -3.5569,3.5568 v 7.1137 c 0,1.9643 1.5925,3.5568 3.5569,3.5568 h 3.023 c 1.9644,0 3.5569,-1.5925 3.5569,-3.5568 v -7.1137 c 0,-1.9643 -1.5925,-3.5568 -3.5569,-3.5568 z"
         stroke="none"
         clip-path="url(#584230474868-clipPath1)"
         id="path530" />
      <text
         x="0"
         y="14"
         transform="translate(261.3272,385.9238)"
         clip-path="url(#584230474960-clipPath1)"
         fill="#ff0000"
         stroke="none"
         xml:space="preserve"
         id="text530">O</text>
    </g>
    <g
       fill="#ffffff"
       text-rendering="geometricPrecision"
       font-size="10px"
       font-family="sans-serif"
       stroke="#ffffff"
       id="g535"
       transform="matrix(0.26458333,0,0,0.26458333,42.152006,21.719247)">
      <path
         d="m 224.5754,501.2064 c -1.8708,0 -3.3874,1.5166 -3.3874,3.3874 v 6.7749 c 0,1.8709 1.5166,3.3875 3.3874,3.3875 h 12.4575 c 1.8709,0 3.3875,-1.5166 3.3875,-3.3875 v 6.4097 c 0,1.9176 1.4559,3.4722 3.2519,3.4722 1.7961,0 3.252,-1.5546 3.252,-3.4722 v -6.9442 c 0,-1.9176 -1.4559,-3.4722 -3.252,-3.4722 -1.796,0 -3.2519,1.5546 -3.2519,3.4722 v -6.2404 c 0,-1.8708 -1.5166,-3.3874 -3.3875,-3.3874 z"
         stroke="none"
         clip-path="url(#584230474868-clipPath1)"
         id="path534" />
    </g>
  </g>
</svg>
